<svg width="221" height="206" viewBox="0 0 221 206" fill="none" xmlns="http://www.w3.org/2000/svg">
<path d="M92.5 5.5H23C9.49998 5.5 5.39998 13 5.49998 24.5V181.5C5.39998 193 9.49998 200.5 23 200.5H92.5C106 200.5 110.1 193 110 181.5V24.5C110.1 13 106 5.5 92.5 5.5Z" stroke="black" stroke-width="10"/>
<path d="M109 92.0018L192.951 92.0018C206.902 91.9022 216 95.9825 216 109.417C216 127.729 216 163.157 216 178.583C216 192.018 206.902 196.098 192.951 195.998L105 195.998" stroke="black" stroke-width="10"/>
<path d="M51 21H66" stroke="black" stroke-width="10" stroke-linecap="round"/>
<circle cx="35" cy="21" r="5" fill="black"/>
<path d="M201 136L201 151" stroke="black" stroke-width="10" stroke-linecap="round"/>
<circle cx="201" cy="120" r="5" transform="rotate(90 201 120)" fill="black"/>
<path d="M176.512 31.396C163.623 18.5041 142.856 18.3422 129.735 30.8517L123.792 24.5481V46.7083H144.685L138.917 40.5918C146.789 33.0375 159.288 33.1213 167.04 40.871C175.393 49.2264 174.477 62.3221 166.515 69.6782L175.767 79.449C188.932 67.6514 190.443 45.3265 176.512 31.396Z" fill="black"/>
</svg>
